<svg  xmlns="http://www.w3.org/2000/svg" width="24" height="24"  
fill="currentColor" viewBox="0 0 24 24" >
<!--Boxicons v3.0.3 https://boxicons.com | License  https://docs.boxicons.com/free-->
<path d="m21.57,3.18c-.27-.19-.62-.23-.92-.11l-12.83,4.93h-3.81c-1.1,0-2,.9-2,2v4c0,1.1.9,2,2,2h3.81l1,.39-.47,1.4c-.33,1,.17,2.1,1.15,2.49l3.14,1.26c.24.09.49.14.74.14.29,0,.58-.06.84-.19.5-.23.88-.66,1.05-1.18l.42-1.27,4.93,1.9c.12.04.24.07.36.07.2,0,.4-.06.57-.18.27-.19.43-.5.43-.82V4c0-.33-.16-.64-.43-.82ZM4,10h3v4h-3v-4Zm9.39,9.68l-3.14-1.26.44-1.32,3.15,1.21-.45,1.36Zm6.61-1.13l-11-4.23v-4.63l11-4.23v13.09Z"></path>
</svg>